<svg width="361" height="560" viewBox="0 0 361 560" fill="none" xmlns="http://www.w3.org/2000/svg">
<g clip-path="url(#clip0_287_4297)">
<path fill-rule="evenodd" clip-rule="evenodd" d="M340.264 0.410156C351.358 0.410291 360.351 9.40399 360.352 20.498V465.826L360.291 465.926L357.144 471.04L360.291 476.154L360.352 476.253V539.913C360.351 551.007 351.358 560 340.264 560H20.498C9.40391 560 0.410156 551.006 0.410156 539.912V472.92L3.92969 469.399L0.410156 465.88V20.498C0.410232 9.40395 9.40396 0.410247 20.498 0.410156H340.264ZM28.6973 221.376C24.622 221.376 21.3176 224.68 21.3174 228.755V417.335C21.3174 421.41 24.6218 424.714 28.6973 424.714H332.064C336.14 424.714 339.443 421.41 339.443 417.335V228.755C339.443 224.68 336.14 221.376 332.064 221.376H28.6973Z" fill="white" fill-opacity="0.15"/>
<path d="M359.942 465.711V20.4982C359.942 9.6304 351.091 0.820312 340.223 0.820312H20.5389C9.67111 0.820312 0.820312 9.63039 0.820312 20.4982V465.711L4.50992 469.4L0.820312 473.09V539.913C0.820312 550.78 9.63042 559.59 20.4982 559.59H340.264C351.132 559.59 359.942 550.78 359.942 539.913V476.369L356.662 471.04L359.942 465.711Z" stroke="#FFF4E8" stroke-opacity="0.2" stroke-width="0.819912"/>
<path fill-rule="evenodd" clip-rule="evenodd" d="M263.602 430.454H301.933H340.264V228.756C340.264 224.228 336.593 220.557 332.065 220.557H28.6972C24.1689 220.557 20.498 224.228 20.498 228.756V422.255C20.498 426.783 24.1689 430.454 28.6972 430.454H263.602ZM28.6972 221.377H332.065C336.14 221.377 339.444 224.68 339.444 228.756V417.336C339.444 421.411 336.14 424.715 332.065 424.715H28.6972C24.6217 424.715 21.318 421.411 21.318 417.336V228.756C21.318 224.68 24.6217 221.377 28.6972 221.377Z" fill="#F6E6D5" fill-opacity="0.1"/>
<path d="M340.264 430.454H301.933H263.602L287.068 456.191C288.311 457.554 290.07 458.331 291.915 458.331H333.704C337.327 458.331 340.264 455.394 340.264 451.772V430.454Z" fill="#F6E6D5" fill-opacity="0.1"/>
<path d="M263.602 430.454L287.068 456.191C288.311 457.554 290.07 458.331 291.915 458.331H333.705C337.327 458.331 340.264 455.394 340.264 451.772V430.454M263.602 430.454H28.6972C24.1689 430.454 20.498 426.783 20.498 422.255V228.756C20.498 224.228 24.1689 220.557 28.6972 220.557H332.065C336.593 220.557 340.264 224.228 340.264 228.756V430.454M263.602 430.454H301.933H340.264M332.065 221.377H28.6972C24.6217 221.377 21.318 224.68 21.318 228.756V417.336C21.318 421.411 24.6217 424.715 28.6972 424.715H332.065C336.14 424.715 339.444 421.411 339.444 417.336V228.756C339.444 224.68 336.14 221.377 332.065 221.377Z" stroke="#E6CDB3" stroke-opacity="0.1" stroke-width="0.819912"/>
<line x1="294.759" y1="433.733" x2="294.759" y2="455.051" stroke="#E5CDB3" stroke-opacity="0.15" stroke-width="0.819912"/>
<line x1="299.679" y1="433.733" x2="299.678" y2="455.051" stroke="#E5CDB3" stroke-opacity="0.15" stroke-width="0.819912"/>
<line x1="304.597" y1="433.733" x2="304.597" y2="455.051" stroke="#E5CDB3" stroke-opacity="0.15" stroke-width="0.819912"/>
<line x1="309.517" y1="433.733" x2="309.517" y2="455.051" stroke="#E5CDB3" stroke-opacity="0.15" stroke-width="0.819912"/>
<line x1="314.436" y1="433.733" x2="314.436" y2="455.051" stroke="#E5CDB3" stroke-opacity="0.15" stroke-width="0.819912"/>
<line x1="319.356" y1="433.733" x2="319.356" y2="455.051" stroke="#E5CDB3" stroke-opacity="0.15" stroke-width="0.819912"/>
<line x1="324.275" y1="433.733" x2="324.275" y2="455.051" stroke="#E5CDB3" stroke-opacity="0.15" stroke-width="0.819912"/>
<line x1="329.195" y1="433.733" x2="329.195" y2="455.051" stroke="#E5CDB3" stroke-opacity="0.15" stroke-width="0.819912"/>
<line x1="334.114" y1="433.733" x2="334.114" y2="455.051" stroke="#E5CDB3" stroke-opacity="0.15" stroke-width="0.819912"/>
<path d="M20 188.839C20 183.405 24.405 179 29.8389 179H330.161C335.595 179 340 183.405 340 188.839V199.161C340 204.595 335.595 209 330.161 209H29.839C24.4051 209 20 204.595 20 199.161V188.839Z" fill="#FFF4E8" fill-opacity="0.07"/>
<path d="M20 188.839C20 183.405 24.405 179 29.8389 179H330.161C335.595 179 340 183.405 340 188.839V199.161C340 204.595 335.595 209 330.161 209H29.839C24.4051 209 20 204.595 20 199.161V188.839Z" stroke="#FFF4E8" stroke-opacity="0.1" stroke-width="0.819912"/>
<circle cx="36.9195" cy="194" r="4.91947" fill="#AE2634"/>
</g>
<defs>
<clipPath id="clip0_287_4297">
<rect width="360.761" height="560" rx="20" fill="white"/>
</clipPath>
</defs>
</svg>
