<svg width="48" height="48" viewBox="0 0 48 48" fill="none" xmlns="http://www.w3.org/2000/svg">
<g clip-path="url(#clip0_330_10712)">
<path d="M16 23H4.22C4.5917 20.5247 5.47558 18.1541 6.81518 16.0397C8.15478 13.9252 9.92065 12.1134 12 10.72L15.58 8.32L13.38 5L9.8 7.4C6.78656 9.40815 4.31542 12.1291 2.60586 15.3214C0.896312 18.5138 0.00121417 22.0787 0 25.7V39C0 40.0609 0.421427 41.0783 1.17157 41.8284C1.92172 42.5786 2.93913 43 4 43H16C17.0609 43 18.0783 42.5786 18.8284 41.8284C19.5786 41.0783 20 40.0609 20 39V27C20 25.9391 19.5786 24.9217 18.8284 24.1716C18.0783 23.4214 17.0609 23 16 23Z" fill="#2F1B0E"/>
<path d="M44 23H32.22C32.5917 20.5247 33.4756 18.1541 34.8152 16.0397C36.1548 13.9252 37.9207 12.1134 40 10.72L43.58 8.32L41.4 5L37.8 7.4C34.7866 9.40815 32.3154 12.1291 30.6059 15.3214C28.8963 18.5138 28.0012 22.0787 28 25.7V39C28 40.0609 28.4214 41.0783 29.1716 41.8284C29.9217 42.5786 30.9391 43 32 43H44C45.0609 43 46.0783 42.5786 46.8284 41.8284C47.5786 41.0783 48 40.0609 48 39V27C48 25.9391 47.5786 24.9217 46.8284 24.1716C46.0783 23.4214 45.0609 23 44 23Z" fill="#2F1B0E"/>
</g>
<defs>
<clipPath id="clip0_330_10712">
<rect width="48" height="48" fill="white"/>
</clipPath>
</defs>
</svg>
