<svg preserveAspectRatio="none" width="100%" height="100%" overflow="visible" style="display: block;" viewBox="0 0 64 64" fill="none" xmlns="http://www.w3.org/2000/svg">
<g id="Quotes Streamline Carbon" clip-path="url(#clip0_330_10726)">
<path id="Vector" d="M24 41H12.22C12.5917 38.5247 13.4756 36.1541 14.8152 34.0397C16.1548 31.9252 17.9207 30.1134 20 28.72L23.58 26.32L21.38 23L17.8 25.4C14.7866 27.4082 12.3154 30.1291 10.6059 33.3214C8.89631 36.5138 8.00121 40.0787 8 43.7V57C8 58.0609 8.42143 59.0783 9.17157 59.8284C9.92172 60.5786 10.9391 61 12 61H24C25.0609 61 26.0783 60.5786 26.8284 59.8284C27.5786 59.0783 28 58.0609 28 57V45C28 43.9391 27.5786 42.9217 26.8284 42.1716C26.0783 41.4214 25.0609 41 24 41Z" fill="var(--fill-0, #2F1B0E)"/>
<path id="Vector_2" d="M52 41H40.22C40.5917 38.5247 41.4756 36.1541 42.8152 34.0397C44.1548 31.9252 45.9207 30.1134 48 28.72L51.58 26.32L49.4 23L45.8 25.4C42.7866 27.4082 40.3154 30.1291 38.6059 33.3214C36.8963 36.5138 36.0012 40.0787 36 43.7V57C36 58.0609 36.4214 59.0783 37.1716 59.8284C37.9217 60.5786 38.9391 61 40 61H52C53.0609 61 54.0783 60.5786 54.8284 59.8284C55.5786 59.0783 56 58.0609 56 57V45C56 43.9391 55.5786 42.9217 54.8284 42.1716C54.0783 41.4214 53.0609 41 52 41Z" fill="var(--fill-0, #2F1B0E)"/>
<g id="_Transparent_Rectangle_">
</g>
</g>
<defs>
<clipPath id="clip0_330_10726">
<rect width="64" height="64" fill="white"/>
</clipPath>
</defs>
</svg>
